<svg xmlns="http://www.w3.org/2000/svg" viewBox="0 0 100 100" fill="none">
  <defs>
    <linearGradient id="thaiGrad" x1="0%" y1="0%" x2="100%" y2="100%">
      <stop offset="0%" style="stop-color:#d4af37;stop-opacity:1" />
      <stop offset="100%" style="stop-color:#f4d03f;stop-opacity:1" />
    </linearGradient>
  </defs>
  
  <!-- 背景圆形 -->
  <circle cx="50" cy="50" r="45" fill="url(#thaiGrad)" opacity="0.1"/>
  
  <!-- 泰式料理 -->
  <g transform="translate(15, 15)">
    <!-- 泰式炒河粉 -->
    <ellipse cx="35" cy="25" rx="18" ry="8" fill="#8B4513" opacity="0.8"/>
    <ellipse cx="35" cy="23" rx="18" ry="8" fill="#DEB887"/>
    
    <!-- 河粉 -->
    <path d="M20 20 Q35 18 50 20 Q35 22 20 20" stroke="#FFE4B5" stroke-width="2" fill="none"/>
    <path d="M20 23 Q35 21 50 23 Q35 25 20 23" stroke="#FFE4B5" stroke-width="2" fill="none"/>
    <path d="M20 26 Q35 24 50 26 Q35 28 20 26" stroke="#FFE4B5" stroke-width="2" fill="none"/>
    
    <!-- 配菜 -->
    <circle cx="30" cy="20" r="2" fill="#32CD32"/>
    <circle cx="40" cy="20" r="2" fill="#FF6347"/>
    <circle cx="35" cy="18" r="2" fill="#FFE4B5"/>
    <circle cx="32" cy="25" r="2" fill="#FFD700"/>
    <circle cx="38" cy="25" r="2" fill="#FF6347"/>
    
    <!-- 冬阴功汤 -->
    <ellipse cx="25" cy="55" rx="12" ry="6" fill="#8B4513" opacity="0.8"/>
    <ellipse cx="25" cy="53" rx="12" ry="6" fill="#FF6347" opacity="0.7"/>
    
    <!-- 汤料 -->
    <circle cx="20" cy="50" r="2" fill="#32CD32"/>
    <circle cx="30" cy="50" r="2" fill="#FF6347"/>
    <circle cx="25" cy="48" r="2" fill="#FFE4B5"/>
    <circle cx="22" cy="55" r="2" fill="#32CD32"/>
    <circle cx="28" cy="55" r="2" fill="#FF6347"/>
    
    <!-- 香料 -->
    <circle cx="50" cy="45" r="3" fill="#8B4513"/>
    <circle cx="55" cy="50" r="3" fill="#8B4513"/>
    <circle cx="50" cy="55" r="3" fill="#8B4513"/>
    
    <!-- 辣椒 -->
    <path d="M60 40 Q65 35 70 40 Q65 45 60 40" fill="#FF0000"/>
    <path d="M60 50 Q65 45 70 50 Q65 55 60 50" fill="#FF4500"/>
  </g>
</svg>
